<?xml version="1.0" encoding="UTF-8" standalone="no"?>
<!-- Created with Inkscape (http://www.inkscape.org/) -->

<svg
   xmlns:dc="http://purl.org/dc/elements/1.1/"
   xmlns:cc="http://creativecommons.org/ns#"
   xmlns:rdf="http://www.w3.org/1999/02/22-rdf-syntax-ns#"
   xmlns:svg="http://www.w3.org/2000/svg"
   xmlns="http://www.w3.org/2000/svg"
   xmlns:sodipodi="http://sodipodi.sourceforge.net/DTD/sodipodi-0.dtd"
   xmlns:inkscape="http://www.inkscape.org/namespaces/inkscape"
   width="256"
   height="256"
   viewBox="0 0 256 256"
   id="svg2"
   version="1.1"
   inkscape:version="0.91 r13725"
   sodipodi:docname="sushi_with_nori_00.svg">
  <title
     id="title4151">Sushi with Nori</title>
  <defs
     id="defs4" />
  <sodipodi:namedview
     id="base"
     pagecolor="#ffffff"
     bordercolor="#666666"
     borderopacity="1.0"
     inkscape:pageopacity="0.0"
     inkscape:pageshadow="2"
     inkscape:zoom="2"
     inkscape:cx="325"
     inkscape:cy="357.14286"
     inkscape:document-units="px"
     inkscape:current-layer="layer2"
     showgrid="false"
     inkscape:window-width="2880"
     inkscape:window-height="1620"
     inkscape:window-x="0"
     inkscape:window-y="0"
     inkscape:window-maximized="0"
     units="px" />
  <metadata
     id="metadata7">
    <rdf:RDF>
      <cc:Work
         rdf:about="">
        <dc:format>image/svg+xml</dc:format>
        <dc:type
           rdf:resource="http://purl.org/dc/dcmitype/StillImage" />
        <dc:title>Sushi with Nori</dc:title>
      </cc:Work>
    </rdf:RDF>
  </metadata>
  <g
     inkscape:groupmode="layer"
     id="layer2"
     inkscape:label="main"
     transform="translate(0,-488.09448)">
    <g
       id="g4153"
       transform="translate(-500.90043,414.30315)">
      <g
         inkscape:export-ydpi="163.63637"
         inkscape:export-xdpi="163.63637"
         transform="translate(286.5,9)"
         id="g4160">
        <path
           style="fill:none;fill-rule:evenodd;stroke:#000000;stroke-width:1.5;stroke-linecap:butt;stroke-linejoin:miter;stroke-miterlimit:4;stroke-dasharray:none;stroke-opacity:1"
           d="m 233,241.09448 c 1.53192,-2.92189 11,-6.5 11,-6.5 l 6.5,-9.5 6,-6 13,-5.5 14,-8.5 25,0 29,3.5 40.5,8.5 35,12 21,11 3,8 c 0,0 3.41698,0.32524 4.52513,2.59099 1.10814,2.26575 -1.52513,5.40901 -1.52513,5.40901 0,0 4.16428,4.11087 4,7 -0.16428,2.88913 -5.5,7.5 -5.5,7.5 0,0 4.54435,1.49162 4.2019,4.29289 -0.34244,2.80127 -4.11091,4.20711 -4.11091,4.20711 0,0 2.85896,4.87539 1.90901,7 -0.94995,2.12461 -6,3 -6,3 0,0 2.9483,3.38082 2,5.5 -0.9483,2.11918 -7.5,3 -7.5,3 0,0 -2.94152,4.87162 -6,5.5 -3.05848,0.62838 -10,-3.5 -10,-3.5 0,0 -5.90875,5.02645 -9.35355,5.40901 -3.44481,0.38256 -8.14645,-2.40901 -8.14645,-2.40901 0,0 -7.05172,2.36952 -9.5,2 -2.44828,-0.36952 -4.5,-2.5 -4.5,-2.5 0,0 -5.46744,1.79203 -8.17678,1.43934 -2.70934,-0.35269 -6.60355,-3.20711 -6.60355,-3.20711 0,0 -4.27829,1.38517 -7.31066,1.03554 -3.03237,-0.34964 -9.55546,-4.38909 -9.55546,-4.38909 0,0 -4.3119,1.7929 -6.5,1.56586 -2.18809,-0.22703 -5.88388,-2.79289 -5.88388,-2.79289 0,0 -7.82658,0.99348 -10.96967,0.34835 -3.14309,-0.64513 -7.5,-3.5 -7.5,-3.5 0,0 -4.86939,0.59036 -6.5,0 -1.63061,-0.59036 -3,-2.5 -3,-2.5 0,0 -7.59991,2.10357 -11,1.5 -3.40009,-0.60357 -8.5,-4.5 -8.5,-4.5 0,0 -6.65909,1.23124 -9,0.5 -2.34091,-0.73124 -4.5,-3.5 -4.5,-3.5 0,0 -5.70258,1.2043 -8.2019,0.73744 -2.49933,-0.46686 -6.7981,-2.73744 -6.7981,-2.73744 0,0 -4.66923,0.31661 -6.7019,-0.59099 -2.03267,-0.9076 -4.44455,-3.67678 -4.44455,-3.67678 0,0 -3.68964,0.41641 -5.14644,-0.53033 -1.4568,-0.94673 -2.70711,-2.2019 -2.70711,-2.2019 0,0 -3.46221,-0.24933 -4.70711,-0.95711 -1.24489,-0.70778 -1.87868,-3.07842 -1.87868,-3.07842 0,0 -2.50448,-1.04692 -3.23743,-2.52513 -0.73295,-1.47821 1.32322,-4.93934 1.32322,-4.93934 0,0 -2.42406,-2.21993 -3.11612,-3.76777 -0.69205,-1.54783 0.61612,-3.73223 0.61612,-3.73223 l 1,-1.5 c 0,0 -2.29483,-1.69374 -1.9948,-3.82322 0.30004,-2.12949 2.9948,-2.67678 2.9948,-2.67678 0,0 -2.03192,-4.07811 -0.5,-7 z"
           id="path4148"
           inkscape:connector-curvature="0"
           sodipodi:nodetypes="zccccccccccczczczczczczczczczczczczczczczczczczczczczcczcz" />
        <path
           style="fill:none;fill-rule:evenodd;stroke:#000000;stroke-width:1px;stroke-linecap:butt;stroke-linejoin:miter;stroke-opacity:1"
           d="m 263.92761,251.94816 c 0,0 -4.72889,-1.13842 -5.12653,1.59098 -0.39764,2.72941 3.00521,4.24265 3.00521,4.24265 0,0 -4.03534,1.59695 -3.88909,3.88909 0.14625,2.29214 6.01041,1.76777 6.01041,1.76777"
           id="path4154"
           inkscape:connector-curvature="0"
           sodipodi:nodetypes="czczc" />
      </g>
      <g
         inkscape:export-ydpi="163.63637"
         inkscape:export-xdpi="163.63637"
         transform="translate(286.5,9)"
         id="g4156">
        <path
           style="fill:#efa7c3;fill-opacity:1;fill-rule:evenodd;stroke:#000000;stroke-width:1.5;stroke-linecap:butt;stroke-linejoin:miter;stroke-miterlimit:4;stroke-dasharray:none;stroke-opacity:1"
           d="m 230.16325,230.91174 c -0.13151,2.61536 0.6588,4.64424 4.77298,6.18718 4.11417,1.54294 4.53135,-0.98427 16.79378,-0.70711 12.26243,0.27716 37.11433,2.72697 56.56855,4.94975 19.45422,2.22278 43.23321,5.77433 58.15953,9.36916 14.92631,3.59484 21.66332,6.38186 28.63783,10.60661 6.97451,4.22475 12.49863,8.80061 15.73312,10.78338 3.23449,1.98277 3.04576,1.99739 6.36396,2.12131 3.3182,0.12392 7.01717,-1.84394 12.72792,-4.24263 5.71075,-2.39869 16.16715,-7.65813 19.44544,-11.31371 3.27829,-3.65558 2.45476,-2.06102 2.82843,-6.36396 0.37367,-4.30294 -1.54806,-13.27148 -4.5962,-18.38478 -3.04814,-5.1133 -3.50679,-5.58887 -12.37437,-11.31371 -8.86758,-5.72484 -30.27538,-13.91129 -42.77996,-18.38478 -12.50458,-4.47349 -17.91706,-6.39479 -31.8198,-9.19238 -13.90274,-2.79759 -37.42825,-5.41397 -51.6188,-6.01041 -14.19055,-0.59644 -18.04592,-0.43578 -23.68808,-0.35355 -5.64216,0.0822 -6.22266,0.16028 -10.25304,1.76776 -4.03039,1.60749 -10.27751,4.69808 -18.208,10.07628 -7.93049,5.37819 -15.44794,11.58095 -19.62221,15.20279 -4.17427,3.62183 -5.30331,6.89429 -5.30331,6.89429 0,0 -1.63626,5.69315 -1.76777,8.30851 z"
           id="path4150"
           inkscape:connector-curvature="0"
           sodipodi:nodetypes="zzzzzzzzzzzzzzzzzzzzcz" />
        <path
           style="fill:none;fill-rule:evenodd;stroke:#000000;stroke-width:1.5;stroke-linecap:butt;stroke-linejoin:miter;stroke-miterlimit:4;stroke-dasharray:none;stroke-opacity:1"
           d="m 230.51681,228.26009 c 0,0 8.41237,-2.04097 17.85445,-2.65166 9.44208,-0.61069 25.90771,-0.24079 38.71409,0.70711 12.80638,0.9479 24.97142,1.96353 39.4212,4.24264 14.44978,2.27911 33.28278,5.75124 47.19938,9.72272 13.9166,3.97148 23.56381,7.78156 29.87526,11.31371 6.31146,3.53216 10.84242,6.79521 12.1976,9.19239 1.35518,2.39718 1.70131,4.13627 1.41421,6.36396 -0.2871,2.22769 -3.18198,6.18718 -3.18198,6.18718"
           id="path4152"
           inkscape:connector-curvature="0"
           sodipodi:nodetypes="czzzzzzzc" />
      </g>
      <path
         inkscape:export-ydpi="163.63637"
         inkscape:export-xdpi="163.63637"
         sodipodi:nodetypes="czzczzcczzczzzcczc"
         inkscape:connector-curvature="0"
         id="path4164"
         d="m 584.54551,300.54614 c 0,0 -0.10907,-18.40597 0.70711,-26.33972 0.81617,-7.93375 2.38473,-15.20157 3.71231,-21.21321 1.32758,-6.01164 4.41941,-16.08668 4.41941,-16.08668 0,0 6.82277,-9.02408 12.02082,-14.31891 5.19806,-5.29483 12.5271,-12.43232 16.44023,-15.90991 3.91313,-3.47759 7.77818,-5.48007 7.77818,-5.48007 l 19.09188,3.18198 c 0,0 -8.24715,7.83351 -13.08148,13.08148 -4.83432,5.24797 -12.84801,14.52759 -16.08668,18.20799 -3.23867,3.6804 -3.0052,3.88909 -3.0052,3.88909 0,0 -1.72896,7.1069 -3.0052,13.43503 -1.27624,6.32813 -3.51129,17.7503 -4.41942,24.57196 -0.90813,6.82166 -1.19552,12.31091 -1.41421,16.26346 -0.21869,3.95255 -0.17678,7.42462 -0.17678,7.42462 l 0,1.76777 c 0,0 -9.25175,-0.81704 -13.08148,-1.23744 -3.82973,-0.4204 -9.89949,-1.23744 -9.89949,-1.23744 z"
         style="fill:#052f00;fill-opacity:1;fill-rule:evenodd;stroke:#000000;stroke-width:1px;stroke-linecap:butt;stroke-linejoin:miter;stroke-opacity:1" />
    </g>
  </g>
</svg>
